<?xml version="1.0" encoding="UTF-8" standalone="no"?><!DOCTYPE svg PUBLIC "-//W3C//DTD SVG 1.1//EN" "http://www.w3.org/Graphics/SVG/1.1/DTD/svg11.dtd"><svg width="100%" height="100%" viewBox="0 0 2863 1863" version="1.1" xmlns="http://www.w3.org/2000/svg" xmlns:xlink="http://www.w3.org/1999/xlink" xml:space="preserve" xmlns:serif="http://www.serif.com/" style="fill-rule:evenodd;clip-rule:evenodd;stroke-linejoin:round;stroke-miterlimit:2;"><rect x="-1.684" y="-1.341" width="2870.03" height="1869.35" style="fill:#1077a0;"/><g transform="matrix(4.16667,0,0,4.16667,-205.007,-319.983)"><text x="96.211px" y="254.611px" style="font-family:'Arial-Black', 'Arial Black', sans-serif;font-weight:900;font-size:144px;fill:#ff0059;">Bo<tspan x="299.204px 395.251px " y="254.611px 254.611px ">x1</tspan>:</text><text x="96.211px" y="410.611px" style="font-family:'Arial-Black', 'Arial Black', sans-serif;font-weight:900;font-size:144px;fill:#ff0059;">Music</text></g><g transform="matrix(4.16667,0,0,4.16667,-180.296,-335.497)"><text x="96.211px" y="254.611px" style="font-family:'Arial-Black', 'Arial Black', sans-serif;font-weight:900;font-size:144px;fill:#ff005a;">Bo<tspan x="299.204px 395.251px " y="254.611px 254.611px ">x1</tspan>:</text><text x="96.211px" y="410.611px" style="font-family:'Arial-Black', 'Arial Black', sans-serif;font-weight:900;font-size:144px;fill:#ff005a;">Music</text></g><g transform="matrix(4.16667,0,0,4.16667,-192.227,-325.451)"><text x="96.211px" y="254.611px" style="font-family:'Arial-Black', 'Arial Black', sans-serif;font-weight:900;font-size:144px;fill:#ff0024;">Bo<tspan x="299.204px 395.251px " y="254.611px 254.611px ">x1</tspan>:</text><text x="96.211px" y="410.611px" style="font-family:'Arial-Black', 'Arial Black', sans-serif;font-weight:900;font-size:144px;fill:#ff0024;">Music</text></g><g transform="matrix(4.16667,0,0,4.16667,-168.597,-343.648)"><text x="96.211px" y="254.611px" style="font-family:'Arial-Black', 'Arial Black', sans-serif;font-weight:900;font-size:144px;fill:#ff3700;">Bo<tspan x="299.204px 395.251px " y="254.611px 254.611px ">x1</tspan>:</text><text x="96.211px" y="410.611px" style="font-family:'Arial-Black', 'Arial Black', sans-serif;font-weight:900;font-size:144px;fill:#ff3700;">Music</text></g><g transform="matrix(4.16667,0,0,4.16667,-157.428,-353.774)"><text x="96.211px" y="254.611px" style="font-family:'Arial-Black', 'Arial Black', sans-serif;font-weight:900;font-size:144px;fill:#ff5a00;stroke:#262626;stroke-width:2px;">Bo<tspan x="299.204px 395.251px " y="254.611px 254.611px ">x1</tspan>:</text><text x="96.211px" y="410.611px" style="font-family:'Arial-Black', 'Arial Black', sans-serif;font-weight:900;font-size:144px;fill:#ff5a00;stroke:#262626;stroke-width:2px;">Music</text></g></svg>