<?xml version="1.0" encoding="UTF-8" standalone="no"?><!DOCTYPE svg PUBLIC "-//W3C//DTD SVG 1.1//EN" "http://www.w3.org/Graphics/SVG/1.1/DTD/svg11.dtd"><svg width="100%" height="100%" viewBox="0 0 2867 1867" version="1.1" xmlns="http://www.w3.org/2000/svg" xmlns:xlink="http://www.w3.org/1999/xlink" xml:space="preserve" xmlns:serif="http://www.serif.com/" style="fill-rule:evenodd;clip-rule:evenodd;stroke-linejoin:round;stroke-miterlimit:2;"><rect x="-1.684" y="-1.341" width="2870.03" height="1869.35" style="fill:#33977c;"/><g transform="matrix(4.16667,0,0,4.16667,-247.395,-266.803)"><text x="96.211px" y="244.589px" style="font-family:'Arial-Black', 'Arial Black', sans-serif;font-weight:900;font-size:130px;fill:#003cff;">Bo<tspan x="279.468px 366.177px " y="244.589px 244.589px ">x2</tspan>:</text><text x="96.211px" y="386.589px" style="font-family:'Arial-Black', 'Arial Black', sans-serif;font-weight:900;font-size:130px;fill:#003cff;">Langa<tspan x="531.851px 618.56px " y="386.589px 386.589px ">ge</tspan></text></g><g transform="matrix(4.16667,0,0,4.16667,-236.686,-277.876)"><text x="96.211px" y="244.589px" style="font-family:'Arial-Black', 'Arial Black', sans-serif;font-weight:900;font-size:130px;fill:#4500ff;">Bo<tspan x="279.468px 366.177px " y="244.589px 244.589px ">x2</tspan>:</text><text x="96.211px" y="386.589px" style="font-family:'Arial-Black', 'Arial Black', sans-serif;font-weight:900;font-size:130px;fill:#4500ff;">Langa<tspan x="531.851px 618.56px " y="386.589px 386.589px ">ge</tspan></text></g><g transform="matrix(4.16667,0,0,4.16667,-220.32,-289.132)"><text x="96.211px" y="244.589px" style="font-family:'Arial-Black', 'Arial Black', sans-serif;font-weight:900;font-size:130px;fill:#b0f;">Bo<tspan x="279.468px 366.177px " y="244.589px 244.589px ">x2</tspan>:</text><text x="96.211px" y="386.589px" style="font-family:'Arial-Black', 'Arial Black', sans-serif;font-weight:900;font-size:130px;fill:#b0f;">Langa<tspan x="531.851px 618.56px " y="386.589px 386.589px ">ge</tspan></text></g><g transform="matrix(4.16667,0,0,4.16667,-206.268,-300.605)"><text x="96.211px" y="244.589px" style="font-family:'Arial-Black', 'Arial Black', sans-serif;font-weight:900;font-size:130px;fill:#db00ff;">Bo<tspan x="279.468px 366.177px " y="244.589px 244.589px ">x2</tspan>:</text><text x="96.211px" y="386.589px" style="font-family:'Arial-Black', 'Arial Black', sans-serif;font-weight:900;font-size:130px;fill:#db00ff;">Langa<tspan x="531.851px 618.56px " y="386.589px 386.589px ">ge</tspan></text></g><g transform="matrix(4.16667,0,0,4.16667,-194.635,-309.23)"><text x="96.211px" y="244.589px" style="font-family:'Arial-Black', 'Arial Black', sans-serif;font-weight:900;font-size:130px;fill:#ff00c0;">Bo<tspan x="279.468px 366.177px " y="244.589px 244.589px ">x2</tspan>:</text><text x="96.211px" y="386.589px" style="font-family:'Arial-Black', 'Arial Black', sans-serif;font-weight:900;font-size:130px;fill:#ff00c0;">Langa<tspan x="531.851px 618.56px " y="386.589px 386.589px ">ge</tspan></text></g><g transform="matrix(4.16667,0,0,4.16667,-181.05,-320.694)"><text x="96.211px" y="244.589px" style="font-family:'Arial-Black', 'Arial Black', sans-serif;font-weight:900;font-size:130px;fill:#ff004d;stroke:#262626;stroke-width:1px;">Bo<tspan x="279.468px 366.177px " y="244.589px 244.589px ">x2</tspan>:</text><text x="96.211px" y="386.589px" style="font-family:'Arial-Black', 'Arial Black', sans-serif;font-weight:900;font-size:130px;fill:#ff004d;stroke:#262626;stroke-width:1px;">Langa<tspan x="531.851px 618.56px " y="386.589px 386.589px ">ge</tspan></text></g></svg>