<?xml version="1.0" encoding="UTF-8" standalone="no"?><!DOCTYPE svg PUBLIC "-//W3C//DTD SVG 1.1//EN" "http://www.w3.org/Graphics/SVG/1.1/DTD/svg11.dtd"><svg width="100%" height="100%" viewBox="0 0 2867 1867" version="1.1" xmlns="http://www.w3.org/2000/svg" xmlns:xlink="http://www.w3.org/1999/xlink" xml:space="preserve" xmlns:serif="http://www.serif.com/" style="fill-rule:evenodd;clip-rule:evenodd;stroke-linejoin:round;stroke-miterlimit:2;"><rect x="-1.684" y="-1.341" width="2870.03" height="1869.35" style="fill:#da224d;"/><g transform="matrix(4.16667,0,0,4.16667,-205.007,-245.843)"><text x="96.211px" y="254.611px" style="font-family:'Arial-Black', 'Arial Black', sans-serif;font-weight:900;font-size:144px;fill:#fe00ff;">Bo<tspan x="299.204px 395.251px " y="254.611px 254.611px ">x3</tspan>:</text><text x="96.211px" y="410.611px" style="font-family:'Arial-Black', 'Arial Black', sans-serif;font-weight:900;font-size:144px;fill:#fe00ff;">Me</text></g><g transform="matrix(4.16667,0,0,4.16667,-198.364,-253.522)"><text x="96.211px" y="254.611px" style="font-family:'Arial-Black', 'Arial Black', sans-serif;font-weight:900;font-size:144px;fill:#d200ff;">Bo<tspan x="299.204px 395.251px " y="254.611px 254.611px ">x3</tspan>:</text><text x="96.211px" y="410.611px" style="font-family:'Arial-Black', 'Arial Black', sans-serif;font-weight:900;font-size:144px;fill:#d200ff;">Me</text></g><g transform="matrix(4.16667,0,0,4.16667,-191.731,-259.447)"><text x="96.211px" y="254.611px" style="font-family:'Arial-Black', 'Arial Black', sans-serif;font-weight:900;font-size:144px;fill:#9000ff;">Bo<tspan x="299.204px 395.251px " y="254.611px 254.611px ">x3</tspan>:</text><text x="96.211px" y="410.611px" style="font-family:'Arial-Black', 'Arial Black', sans-serif;font-weight:900;font-size:144px;fill:#9000ff;">Me</text></g><g transform="matrix(4.16667,0,0,4.16667,-186.403,-267.369)"><text x="96.211px" y="254.611px" style="font-family:'Arial-Black', 'Arial Black', sans-serif;font-weight:900;font-size:144px;fill:#2900ff;">Bo<tspan x="299.204px 395.251px " y="254.611px 254.611px ">x3</tspan>:</text><text x="96.211px" y="410.611px" style="font-family:'Arial-Black', 'Arial Black', sans-serif;font-weight:900;font-size:144px;fill:#2900ff;">Me</text></g><g transform="matrix(4.16667,0,0,4.16667,-180.022,-275.931)"><text x="96.211px" y="254.611px" style="font-family:'Arial-Black', 'Arial Black', sans-serif;font-weight:900;font-size:144px;fill:#008bff;">Bo<tspan x="299.204px 395.251px " y="254.611px 254.611px ">x3</tspan>:</text><text x="96.211px" y="410.611px" style="font-family:'Arial-Black', 'Arial Black', sans-serif;font-weight:900;font-size:144px;fill:#008bff;">Me</text></g><g transform="matrix(4.16667,0,0,4.16667,-173.527,-286.606)"><text x="96.211px" y="254.611px" style="font-family:'Arial-Black', 'Arial Black', sans-serif;font-weight:900;font-size:144px;fill:#00ffca;stroke:#262626;stroke-width:1px;">Bo<tspan x="299.204px 395.251px " y="254.611px 254.611px ">x3</tspan>:</text><text x="96.211px" y="410.611px" style="font-family:'Arial-Black', 'Arial Black', sans-serif;font-weight:900;font-size:144px;fill:#00ffca;stroke:#262626;stroke-width:1px;">Me</text></g></svg>